<?xml version="1.0" encoding="utf-8" standalone="no"?>
<!DOCTYPE svg PUBLIC "-//W3C//DTD SVG 1.1//EN"
  "http://www.w3.org/Graphics/SVG/1.1/DTD/svg11.dtd">
<svg xmlns:xlink="http://www.w3.org/1999/xlink" width="344.898pt" height="309.6pt" viewBox="0 0 344.898 309.6" xmlns="http://www.w3.org/2000/svg" version="1.1">
 <metadata>
  <rdf:RDF xmlns:dc="http://purl.org/dc/elements/1.1/" xmlns:cc="http://creativecommons.org/ns#" xmlns:rdf="http://www.w3.org/1999/02/22-rdf-syntax-ns#">
   <cc:Work>
    <dc:type rdf:resource="http://purl.org/dc/dcmitype/StillImage"/>
    <dc:date>2023-09-14T10:14:44.649784</dc:date>
    <dc:format>image/svg+xml</dc:format>
    <dc:creator>
     <cc:Agent>
      <dc:title>Matplotlib v3.7.0, https://matplotlib.org/</dc:title>
     </cc:Agent>
    </dc:creator>
   </cc:Work>
  </rdf:RDF>
 </metadata>
 <defs>
  <style type="text/css">*{stroke-linejoin: round; stroke-linecap: butt}</style>
 </defs>
 <g id="figure_1">
  <g id="patch_1">
   <path d="M 0 309.6 
L 344.898 309.6 
L 344.898 0 
L 0 0 
z
" style="fill: #ffffff"/>
  </g>
  <g id="axes_1">
   <g id="patch_2">
    <path d="M 43.743005 264.328 
L 143.821012 264.328 
L 143.821012 24.72 
L 43.743005 24.72 
z
" style="fill: #ffffff"/>
   </g>
   <g id="PathCollection_1">
    <path d="M 106.203962 71.904728 
C 106.999571 71.904728 107.762702 71.58863 108.325282 71.026049 
C 108.887863 70.463468 109.203962 69.700338 109.203962 68.904728 
C 109.203962 68.109119 108.887863 67.345989 108.325282 66.783408 
C 107.762702 66.220827 106.999571 65.904728 106.203962 65.904728 
C 105.408353 65.904728 104.645222 66.220827 104.082642 66.783408 
C 103.520061 67.345989 103.203962 68.109119 103.203962 68.904728 
C 103.203962 69.700338 103.520061 70.463468 104.082642 71.026049 
C 104.645222 71.58863 105.408353 71.904728 106.203962 71.904728 
z
" clip-path="url(#pb09e106b95)" style="fill: #808080; fill-opacity: 0.5; stroke: #ffffff; stroke-opacity: 0.5; stroke-width: 0.48"/>
    <path d="M 107.39118 80.611372 
C 108.186789 80.611372 108.949919 80.295273 109.5125 79.732692 
C 110.075081 79.170111 110.39118 78.406981 110.39118 77.611372 
C 110.39118 76.815762 110.075081 76.052632 109.5125 75.490051 
C 108.949919 74.927471 108.186789 74.611372 107.39118 74.611372 
C 106.595571 74.611372 105.83244 74.927471 105.269859 75.490051 
C 104.707279 76.052632 104.39118 76.815762 104.39118 77.611372 
C 104.39118 78.406981 104.707279 79.170111 105.269859 79.732692 
C 105.83244 80.295273 106.595571 80.611372 107.39118 80.611372 
z
" clip-path="url(#pb09e106b95)" style="fill: #808080; fill-opacity: 0.5; stroke: #ffffff; stroke-opacity: 0.5; stroke-width: 0.48"/>
    <path d="M 106.975309 79.075971 
C 107.770918 79.075971 108.534049 78.759872 109.09663 78.197291 
C 109.65921 77.63471 109.975309 76.87158 109.975309 76.075971 
C 109.975309 75.280362 109.65921 74.517231 109.09663 73.954651 
C 108.534049 73.39207 107.770918 73.075971 106.975309 73.075971 
C 106.1797 73.075971 105.41657 73.39207 104.853989 73.954651 
C 104.291408 74.517231 103.975309 75.280362 103.975309 76.075971 
C 103.975309 76.87158 104.291408 77.63471 104.853989 78.197291 
C 105.41657 78.759872 106.1797 79.075971 106.975309 79.075971 
z
" clip-path="url(#pb09e106b95)" style="fill: #808080; fill-opacity: 0.5; stroke: #ffffff; stroke-opacity: 0.5; stroke-width: 0.48"/>
    <path d="M 108.693476 75.057611 
C 109.489085 75.057611 110.252216 74.741512 110.814796 74.178931 
C 111.377377 73.61635 111.693476 72.85322 111.693476 72.057611 
C 111.693476 71.262001 111.377377 70.498871 110.814796 69.93629 
C 110.252216 69.37371 109.489085 69.057611 108.693476 69.057611 
C 107.897867 69.057611 107.134736 69.37371 106.572156 69.93629 
C 106.009575 70.498871 105.693476 71.262001 105.693476 72.057611 
C 105.693476 72.85322 106.009575 73.61635 106.572156 74.178931 
C 107.134736 74.741512 107.897867 75.057611 108.693476 75.057611 
z
" clip-path="url(#pb09e106b95)" style="fill: #808080; fill-opacity: 0.5; stroke: #ffffff; stroke-opacity: 0.5; stroke-width: 0.48"/>
    <path d="M 109.443066 64.271748 
C 110.238675 64.271748 111.001806 63.955649 111.564386 63.393069 
C 112.126967 62.830488 112.443066 62.067358 112.443066 61.271748 
C 112.443066 60.476139 112.126967 59.713009 111.564386 59.150428 
C 111.001806 58.587847 110.238675 58.271748 109.443066 58.271748 
C 108.647457 58.271748 107.884326 58.587847 107.321746 59.150428 
C 106.759165 59.713009 106.443066 60.476139 106.443066 61.271748 
C 106.443066 62.067358 106.759165 62.830488 107.321746 63.393069 
C 107.884326 63.955649 108.647457 64.271748 109.443066 64.271748 
z
" clip-path="url(#pb09e106b95)" style="fill: #808080; fill-opacity: 0.5; stroke: #ffffff; stroke-opacity: 0.5; stroke-width: 0.48"/>
    <path d="M 108.506495 78.739758 
C 109.302104 78.739758 110.065235 78.423659 110.627815 77.861078 
C 111.190396 77.298497 111.506495 76.535367 111.506495 75.739758 
C 111.506495 74.944149 111.190396 74.181018 110.627815 73.618437 
C 110.065235 73.055857 109.302104 72.739758 108.506495 72.739758 
C 107.710886 72.739758 106.947755 73.055857 106.385175 73.618437 
C 105.822594 74.181018 105.506495 74.944149 105.506495 75.739758 
C 105.506495 76.535367 105.822594 77.298497 106.385175 77.861078 
C 106.947755 78.423659 107.710886 78.739758 108.506495 78.739758 
z
" clip-path="url(#pb09e106b95)" style="fill: #808080; fill-opacity: 0.5; stroke: #ffffff; stroke-opacity: 0.5; stroke-width: 0.48"/>
    <path d="M 48.292005 223.461248 
C 49.087614 223.461248 49.850745 223.145149 50.413325 222.582568 
C 50.975906 222.019987 51.292005 221.256857 51.292005 220.461248 
C 51.292005 219.665638 50.975906 218.902508 50.413325 218.339927 
C 49.850745 217.777347 49.087614 217.461248 48.292005 217.461248 
C 47.496396 217.461248 46.733265 217.777347 46.170685 218.339927 
C 45.608104 218.902508 45.292005 219.665638 45.292005 220.461248 
C 45.292005 221.256857 45.608104 222.019987 46.170685 222.582568 
C 46.733265 223.145149 47.496396 223.461248 48.292005 223.461248 
z
" clip-path="url(#pb09e106b95)" style="fill: #808080; fill-opacity: 0.5; stroke: #ffffff; stroke-opacity: 0.5; stroke-width: 0.48"/>
    <path d="M 122.847196 57.99025 
C 123.642805 57.99025 124.405936 57.674151 124.968517 57.111571 
C 125.531097 56.54899 125.847196 55.78586 125.847196 54.99025 
C 125.847196 54.194641 125.531097 53.431511 124.968517 52.86893 
C 124.405936 52.306349 123.642805 51.99025 122.847196 51.99025 
C 122.051587 51.99025 121.288457 52.306349 120.725876 52.86893 
C 120.163295 53.431511 119.847196 54.194641 119.847196 54.99025 
C 119.847196 55.78586 120.163295 56.54899 120.725876 57.111571 
C 121.288457 57.674151 122.051587 57.99025 122.847196 57.99025 
z
" clip-path="url(#pb09e106b95)" style="fill: #808080; fill-opacity: 0.5; stroke: #ffffff; stroke-opacity: 0.5; stroke-width: 0.48"/>
    <path d="M 114.371514 83.398751 
C 115.167123 83.398751 115.930254 83.082652 116.492834 82.520071 
C 117.055415 81.95749 117.371514 81.19436 117.371514 80.398751 
C 117.371514 79.603141 117.055415 78.840011 116.492834 78.27743 
C 115.930254 77.71485 115.167123 77.398751 114.371514 77.398751 
C 113.575905 77.398751 112.812774 77.71485 112.250194 78.27743 
C 111.687613 78.840011 111.371514 79.603141 111.371514 80.398751 
C 111.371514 81.19436 111.687613 81.95749 112.250194 82.520071 
C 112.812774 83.082652 113.575905 83.398751 114.371514 83.398751 
z
" clip-path="url(#pb09e106b95)" style="fill: #808080; fill-opacity: 0.5; stroke: #ffffff; stroke-opacity: 0.5; stroke-width: 0.48"/>
    <path d="M 116.014769 56.865981 
C 116.810378 56.865981 117.573509 56.549882 118.136089 55.987301 
C 118.69867 55.42472 119.014769 54.66159 119.014769 53.865981 
C 119.014769 53.070371 118.69867 52.307241 118.136089 51.74466 
C 117.573509 51.18208 116.810378 50.865981 116.014769 50.865981 
C 115.21916 50.865981 114.456029 51.18208 113.893449 51.74466 
C 113.330868 52.307241 113.014769 53.070371 113.014769 53.865981 
C 113.014769 54.66159 113.330868 55.42472 113.893449 55.987301 
C 114.456029 56.549882 115.21916 56.865981 116.014769 56.865981 
z
" clip-path="url(#pb09e106b95)" style="fill: #808080; fill-opacity: 0.5; stroke: #ffffff; stroke-opacity: 0.5; stroke-width: 0.48"/>
    <path d="M 112.193019 45.696495 
C 112.988629 45.696495 113.751759 45.380396 114.31434 44.817816 
C 114.876921 44.255235 115.193019 43.492105 115.193019 42.696495 
C 115.193019 41.900886 114.876921 41.137756 114.31434 40.575175 
C 113.751759 40.012594 112.988629 39.696495 112.193019 39.696495 
C 111.39741 39.696495 110.63428 40.012594 110.071699 40.575175 
C 109.509118 41.137756 109.193019 41.900886 109.193019 42.696495 
C 109.193019 43.492105 109.509118 44.255235 110.071699 44.817816 
C 110.63428 45.380396 111.39741 45.696495 112.193019 45.696495 
z
" clip-path="url(#pb09e106b95)" style="fill: #808080; fill-opacity: 0.5; stroke: #ffffff; stroke-opacity: 0.5; stroke-width: 0.48"/>
    <path d="M 114.34815 71.994296 
C 115.143759 71.994296 115.90689 71.678197 116.46947 71.115616 
C 117.032051 70.553036 117.34815 69.789905 117.34815 68.994296 
C 117.34815 68.198687 117.032051 67.435556 116.46947 66.872976 
C 115.90689 66.310395 115.143759 65.994296 114.34815 65.994296 
C 113.552541 65.994296 112.78941 66.310395 112.22683 66.872976 
C 111.664249 67.435556 111.34815 68.198687 111.34815 68.994296 
C 111.34815 69.789905 111.664249 70.553036 112.22683 71.115616 
C 112.78941 71.678197 113.552541 71.994296 114.34815 71.994296 
z
" clip-path="url(#pb09e106b95)" style="fill: #808080; fill-opacity: 0.5; stroke: #ffffff; stroke-opacity: 0.5; stroke-width: 0.48"/>
    <path d="M 111.059344 64.185809 
C 111.854953 64.185809 112.618084 63.86971 113.180664 63.307129 
C 113.743245 62.744549 114.059344 61.981418 114.059344 61.185809 
C 114.059344 60.3902 113.743245 59.627069 113.180664 59.064489 
C 112.618084 58.501908 111.854953 58.185809 111.059344 58.185809 
C 110.263735 58.185809 109.500604 58.501908 108.938024 59.064489 
C 108.375443 59.627069 108.059344 60.3902 108.059344 61.185809 
C 108.059344 61.981418 108.375443 62.744549 108.938024 63.307129 
C 109.500604 63.86971 110.263735 64.185809 111.059344 64.185809 
z
" clip-path="url(#pb09e106b95)" style="fill: #808080; fill-opacity: 0.5; stroke: #ffffff; stroke-opacity: 0.5; stroke-width: 0.48"/>
    <path d="M 106.003031 75.677657 
C 106.79864 75.677657 107.56177 75.361558 108.124351 74.798977 
C 108.686932 74.236396 109.003031 73.473266 109.003031 72.677657 
C 109.003031 71.882047 108.686932 71.118917 108.124351 70.556336 
C 107.56177 69.993756 106.79864 69.677657 106.003031 69.677657 
C 105.207422 69.677657 104.444291 69.993756 103.881711 70.556336 
C 103.31913 71.118917 103.003031 71.882047 103.003031 72.677657 
C 103.003031 73.473266 103.31913 74.236396 103.881711 74.798977 
C 104.444291 75.361558 105.207422 75.677657 106.003031 75.677657 
z
" clip-path="url(#pb09e106b95)" style="fill: #808080; fill-opacity: 0.5; stroke: #ffffff; stroke-opacity: 0.5; stroke-width: 0.48"/>
    <path d="M 115.92791 76.3558 
C 116.72352 76.3558 117.48665 76.039701 118.049231 75.477121 
C 118.611812 74.91454 118.92791 74.151409 118.92791 73.3558 
C 118.92791 72.560191 118.611812 71.797061 118.049231 71.23448 
C 117.48665 70.671899 116.72352 70.3558 115.92791 70.3558 
C 115.132301 70.3558 114.369171 70.671899 113.80659 71.23448 
C 113.244009 71.797061 112.92791 72.560191 112.92791 73.3558 
C 112.92791 74.151409 113.244009 74.91454 113.80659 75.477121 
C 114.369171 76.039701 115.132301 76.3558 115.92791 76.3558 
z
" clip-path="url(#pb09e106b95)" style="fill: #808080; fill-opacity: 0.5; stroke: #ffffff; stroke-opacity: 0.5; stroke-width: 0.48"/>
    <path d="M 70.907559 161.017705 
C 71.703168 161.017705 72.466298 160.701606 73.028879 160.139025 
C 73.59146 159.576445 73.907559 158.813314 73.907559 158.017705 
C 73.907559 157.222096 73.59146 156.458965 73.028879 155.896385 
C 72.466298 155.333804 71.703168 155.017705 70.907559 155.017705 
C 70.111949 155.017705 69.348819 155.333804 68.786238 155.896385 
C 68.223658 156.458965 67.907559 157.222096 67.907559 158.017705 
C 67.907559 158.813314 68.223658 159.576445 68.786238 160.139025 
C 69.348819 160.701606 70.111949 161.017705 70.907559 161.017705 
z
" clip-path="url(#pb09e106b95)" style="fill: #808080; fill-opacity: 0.5; stroke: #ffffff; stroke-opacity: 0.5; stroke-width: 0.48"/>
    <path d="M 73.967715 114.157597 
C 74.763324 114.157597 75.526455 113.841498 76.089035 113.278917 
C 76.651616 112.716336 76.967715 111.953206 76.967715 111.157597 
C 76.967715 110.361987 76.651616 109.598857 76.089035 109.036276 
C 75.526455 108.473696 74.763324 108.157597 73.967715 108.157597 
C 73.172106 108.157597 72.408975 108.473696 71.846395 109.036276 
C 71.283814 109.598857 70.967715 110.361987 70.967715 111.157597 
C 70.967715 111.953206 71.283814 112.716336 71.846395 113.278917 
C 72.408975 113.841498 73.172106 114.157597 73.967715 114.157597 
z
" clip-path="url(#pb09e106b95)" style="fill: #808080; fill-opacity: 0.5; stroke: #ffffff; stroke-opacity: 0.5; stroke-width: 0.48"/>
    <path d="M 110.704288 99.657043 
C 111.499897 99.657043 112.263027 99.340944 112.825608 98.778363 
C 113.388189 98.215782 113.704288 97.452652 113.704288 96.657043 
C 113.704288 95.861433 113.388189 95.098303 112.825608 94.535722 
C 112.263027 93.973141 111.499897 93.657043 110.704288 93.657043 
C 109.908678 93.657043 109.145548 93.973141 108.582967 94.535722 
C 108.020387 95.098303 107.704288 95.861433 107.704288 96.657043 
C 107.704288 97.452652 108.020387 98.215782 108.582967 98.778363 
C 109.145548 99.340944 109.908678 99.657043 110.704288 99.657043 
z
" clip-path="url(#pb09e106b95)" style="fill: #808080; fill-opacity: 0.5; stroke: #ffffff; stroke-opacity: 0.5; stroke-width: 0.48"/>
    <path d="M 110.276474 139.347626 
C 111.072083 139.347626 111.835213 139.031527 112.397794 138.468946 
C 112.960375 137.906365 113.276474 137.143235 113.276474 136.347626 
C 113.276474 135.552016 112.960375 134.788886 112.397794 134.226305 
C 111.835213 133.663725 111.072083 133.347626 110.276474 133.347626 
C 109.480864 133.347626 108.717734 133.663725 108.155153 134.226305 
C 107.592573 134.788886 107.276474 135.552016 107.276474 136.347626 
C 107.276474 137.143235 107.592573 137.906365 108.155153 138.468946 
C 108.717734 139.031527 109.480864 139.347626 110.276474 139.347626 
z
" clip-path="url(#pb09e106b95)" style="fill: #808080; fill-opacity: 0.5; stroke: #ffffff; stroke-opacity: 0.5; stroke-width: 0.48"/>
    <path d="M 112.484674 68.97764 
C 113.280283 68.97764 114.043413 68.661541 114.605994 68.098961 
C 115.168575 67.53638 115.484674 66.77325 115.484674 65.97764 
C 115.484674 65.182031 115.168575 64.418901 114.605994 63.85632 
C 114.043413 63.293739 113.280283 62.97764 112.484674 62.97764 
C 111.689064 62.97764 110.925934 63.293739 110.363353 63.85632 
C 109.800772 64.418901 109.484674 65.182031 109.484674 65.97764 
C 109.484674 66.77325 109.800772 67.53638 110.363353 68.098961 
C 110.925934 68.661541 111.689064 68.97764 112.484674 68.97764 
z
" clip-path="url(#pb09e106b95)" style="fill: #808080; fill-opacity: 0.5; stroke: #ffffff; stroke-opacity: 0.5; stroke-width: 0.48"/>
    <path d="M 116.136213 87.301375 
C 116.931822 87.301375 117.694953 86.985276 118.257533 86.422695 
C 118.820114 85.860115 119.136213 85.096984 119.136213 84.301375 
C 119.136213 83.505766 118.820114 82.742635 118.257533 82.180055 
C 117.694953 81.617474 116.931822 81.301375 116.136213 81.301375 
C 115.340604 81.301375 114.577473 81.617474 114.014893 82.180055 
C 113.452312 82.742635 113.136213 83.505766 113.136213 84.301375 
C 113.136213 85.096984 113.452312 85.860115 114.014893 86.422695 
C 114.577473 86.985276 115.340604 87.301375 116.136213 87.301375 
z
" clip-path="url(#pb09e106b95)" style="fill: #808080; fill-opacity: 0.5; stroke: #ffffff; stroke-opacity: 0.5; stroke-width: 0.48"/>
    <path d="M 84.71258 109.453248 
L 88.95522 105.210607 
L 84.71258 100.967967 
L 80.469939 105.210607 
z
" clip-path="url(#pb09e106b95)" style="fill: #808080; fill-opacity: 0.5; stroke: #ffffff; stroke-opacity: 0.5; stroke-width: 0.48"/>
    <path d="M 101.235994 170.788029 
C 102.031603 170.788029 102.794733 170.47193 103.357314 169.90935 
C 103.919895 169.346769 104.235994 168.583638 104.235994 167.788029 
C 104.235994 166.99242 103.919895 166.22929 103.357314 165.666709 
C 102.794733 165.104128 102.031603 164.788029 101.235994 164.788029 
C 100.440385 164.788029 99.677254 165.104128 99.114674 165.666709 
C 98.552093 166.22929 98.235994 166.99242 98.235994 167.788029 
C 98.235994 168.583638 98.552093 169.346769 99.114674 169.90935 
C 99.677254 170.47193 100.440385 170.788029 101.235994 170.788029 
z
" clip-path="url(#pb09e106b95)" style="fill: #808080; fill-opacity: 0.5; stroke: #ffffff; stroke-opacity: 0.5; stroke-width: 0.48"/>
    <path d="M 72.129575 132.937976 
C 72.925184 132.937976 73.688314 132.621877 74.250895 132.059297 
C 74.813476 131.496716 75.129575 130.733586 75.129575 129.937976 
C 75.129575 129.142367 74.813476 128.379237 74.250895 127.816656 
C 73.688314 127.254075 72.925184 126.937976 72.129575 126.937976 
C 71.333965 126.937976 70.570835 127.254075 70.008254 127.816656 
C 69.445674 128.379237 69.129575 129.142367 69.129575 129.937976 
C 69.129575 130.733586 69.445674 131.496716 70.008254 132.059297 
C 70.570835 132.621877 71.333965 132.937976 72.129575 132.937976 
z
" clip-path="url(#pb09e106b95)" style="fill: #808080; fill-opacity: 0.5; stroke: #ffffff; stroke-opacity: 0.5; stroke-width: 0.48"/>
    <path d="M 112.454153 98.215092 
C 113.249763 98.215092 114.012893 97.898993 114.575474 97.336412 
C 115.138054 96.773832 115.454153 96.010701 115.454153 95.215092 
C 115.454153 94.419483 115.138054 93.656352 114.575474 93.093772 
C 114.012893 92.531191 113.249763 92.215092 112.454153 92.215092 
C 111.658544 92.215092 110.895414 92.531191 110.332833 93.093772 
C 109.770252 93.656352 109.454153 94.419483 109.454153 95.215092 
C 109.454153 96.010701 109.770252 96.773832 110.332833 97.336412 
C 110.895414 97.898993 111.658544 98.215092 112.454153 98.215092 
z
" clip-path="url(#pb09e106b95)" style="fill: #808080; fill-opacity: 0.5; stroke: #ffffff; stroke-opacity: 0.5; stroke-width: 0.48"/>
    <path d="M 113.054174 80.2221 
C 113.849783 80.2221 114.612913 79.906002 115.175494 79.343421 
C 115.738075 78.78084 116.054174 78.01771 116.054174 77.2221 
C 116.054174 76.426491 115.738075 75.663361 115.175494 75.10078 
C 114.612913 74.538199 113.849783 74.2221 113.054174 74.2221 
C 112.258565 74.2221 111.495434 74.538199 110.932853 75.10078 
C 110.370273 75.663361 110.054174 76.426491 110.054174 77.2221 
C 110.054174 78.01771 110.370273 78.78084 110.932853 79.343421 
C 111.495434 79.906002 112.258565 80.2221 113.054174 80.2221 
z
" clip-path="url(#pb09e106b95)" style="fill: #808080; fill-opacity: 0.5; stroke: #ffffff; stroke-opacity: 0.5; stroke-width: 0.48"/>
    <path d="M 109.510709 89.418406 
C 110.306318 89.418406 111.069448 89.102307 111.632029 88.539726 
C 112.19461 87.977145 112.510709 87.214015 112.510709 86.418406 
C 112.510709 85.622796 112.19461 84.859666 111.632029 84.297085 
C 111.069448 83.734505 110.306318 83.418406 109.510709 83.418406 
C 108.7151 83.418406 107.951969 83.734505 107.389389 84.297085 
C 106.826808 84.859666 106.510709 85.622796 106.510709 86.418406 
C 106.510709 87.214015 106.826808 87.977145 107.389389 88.539726 
C 107.951969 89.102307 108.7151 89.418406 109.510709 89.418406 
z
" clip-path="url(#pb09e106b95)" style="fill: #808080; fill-opacity: 0.5; stroke: #ffffff; stroke-opacity: 0.5; stroke-width: 0.48"/>
    <path d="M 108.346002 73.592089 
C 109.141611 73.592089 109.904742 73.27599 110.467322 72.71341 
C 111.029903 72.150829 111.346002 71.387698 111.346002 70.592089 
C 111.346002 69.79648 111.029903 69.03335 110.467322 68.470769 
C 109.904742 67.908188 109.141611 67.592089 108.346002 67.592089 
C 107.550393 67.592089 106.787262 67.908188 106.224682 68.470769 
C 105.662101 69.03335 105.346002 69.79648 105.346002 70.592089 
C 105.346002 71.387698 105.662101 72.150829 106.224682 72.71341 
C 106.787262 73.27599 107.550393 73.592089 108.346002 73.592089 
z
" clip-path="url(#pb09e106b95)" style="fill: #808080; fill-opacity: 0.5; stroke: #ffffff; stroke-opacity: 0.5; stroke-width: 0.48"/>
    <path d="M 102.151199 116.426604 
C 102.946808 116.426604 103.709939 116.110505 104.272519 115.547924 
C 104.8351 114.985343 105.151199 114.222213 105.151199 113.426604 
C 105.151199 112.630994 104.8351 111.867864 104.272519 111.305283 
C 103.709939 110.742703 102.946808 110.426604 102.151199 110.426604 
C 101.35559 110.426604 100.592459 110.742703 100.029879 111.305283 
C 99.467298 111.867864 99.151199 112.630994 99.151199 113.426604 
C 99.151199 114.222213 99.467298 114.985343 100.029879 115.547924 
C 100.592459 116.110505 101.35559 116.426604 102.151199 116.426604 
z
" clip-path="url(#pb09e106b95)" style="fill: #808080; fill-opacity: 0.5; stroke: #ffffff; stroke-opacity: 0.5; stroke-width: 0.48"/>
    <path d="M 114.571842 70.036837 
C 115.367451 70.036837 116.130581 69.720738 116.693162 69.158157 
C 117.255743 68.595576 117.571842 67.832446 117.571842 67.036837 
C 117.571842 66.241227 117.255743 65.478097 116.693162 64.915516 
C 116.130581 64.352936 115.367451 64.036837 114.571842 64.036837 
C 113.776233 64.036837 113.013102 64.352936 112.450521 64.915516 
C 111.887941 65.478097 111.571842 66.241227 111.571842 67.036837 
C 111.571842 67.832446 111.887941 68.595576 112.450521 69.158157 
C 113.013102 69.720738 113.776233 70.036837 114.571842 70.036837 
z
" clip-path="url(#pb09e106b95)" style="fill: #808080; fill-opacity: 0.5; stroke: #ffffff; stroke-opacity: 0.5; stroke-width: 0.48"/>
    <path d="M 114.62566 77.233352 
C 115.421269 77.233352 116.1844 76.917253 116.74698 76.354672 
C 117.309561 75.792092 117.62566 75.028961 117.62566 74.233352 
C 117.62566 73.437743 117.309561 72.674612 116.74698 72.112032 
C 116.1844 71.549451 115.421269 71.233352 114.62566 71.233352 
C 113.830051 71.233352 113.06692 71.549451 112.50434 72.112032 
C 111.941759 72.674612 111.62566 73.437743 111.62566 74.233352 
C 111.62566 75.028961 111.941759 75.792092 112.50434 76.354672 
C 113.06692 76.917253 113.830051 77.233352 114.62566 77.233352 
z
" clip-path="url(#pb09e106b95)" style="fill: #808080; fill-opacity: 0.5; stroke: #ffffff; stroke-opacity: 0.5; stroke-width: 0.48"/>
    <path d="M 106.629165 118.561033 
C 107.424775 118.561033 108.187905 118.244934 108.750486 117.682353 
C 109.313066 117.119772 109.629165 116.356642 109.629165 115.561033 
C 109.629165 114.765423 109.313066 114.002293 108.750486 113.439712 
C 108.187905 112.877132 107.424775 112.561033 106.629165 112.561033 
C 105.833556 112.561033 105.070426 112.877132 104.507845 113.439712 
C 103.945264 114.002293 103.629165 114.765423 103.629165 115.561033 
C 103.629165 116.356642 103.945264 117.119772 104.507845 117.682353 
C 105.070426 118.244934 105.833556 118.561033 106.629165 118.561033 
z
" clip-path="url(#pb09e106b95)" style="fill: #808080; fill-opacity: 0.5; stroke: #ffffff; stroke-opacity: 0.5; stroke-width: 0.48"/>
    <path d="M 102.152137 84.828113 
C 102.947747 84.828113 103.710877 84.512014 104.273458 83.949433 
C 104.836038 83.386852 105.152137 82.623722 105.152137 81.828113 
C 105.152137 81.032504 104.836038 80.269373 104.273458 79.706793 
C 103.710877 79.144212 102.947747 78.828113 102.152137 78.828113 
C 101.356528 78.828113 100.593398 79.144212 100.030817 79.706793 
C 99.468236 80.269373 99.152137 81.032504 99.152137 81.828113 
C 99.152137 82.623722 99.468236 83.386852 100.030817 83.949433 
C 100.593398 84.512014 101.356528 84.828113 102.152137 84.828113 
z
" clip-path="url(#pb09e106b95)" style="fill: #808080; fill-opacity: 0.5; stroke: #ffffff; stroke-opacity: 0.5; stroke-width: 0.48"/>
    <path d="M 117.136229 106.292709 
C 117.931838 106.292709 118.694968 105.97661 119.257549 105.414029 
C 119.82013 104.851448 120.136229 104.088318 120.136229 103.292709 
C 120.136229 102.497099 119.82013 101.733969 119.257549 101.171388 
C 118.694968 100.608808 117.931838 100.292709 117.136229 100.292709 
C 116.340619 100.292709 115.577489 100.608808 115.014908 101.171388 
C 114.452328 101.733969 114.136229 102.497099 114.136229 103.292709 
C 114.136229 104.088318 114.452328 104.851448 115.014908 105.414029 
C 115.577489 105.97661 116.340619 106.292709 117.136229 106.292709 
z
" clip-path="url(#pb09e106b95)" style="fill: #808080; fill-opacity: 0.5; stroke: #ffffff; stroke-opacity: 0.5; stroke-width: 0.48"/>
    <path d="M 99.536635 93.566659 
C 100.332245 93.566659 101.095375 93.25056 101.657956 92.687979 
C 102.220536 92.125398 102.536635 91.362268 102.536635 90.566659 
C 102.536635 89.771049 102.220536 89.007919 101.657956 88.445338 
C 101.095375 87.882757 100.332245 87.566659 99.536635 87.566659 
C 98.741026 87.566659 97.977896 87.882757 97.415315 88.445338 
C 96.852734 89.007919 96.536635 89.771049 96.536635 90.566659 
C 96.536635 91.362268 96.852734 92.125398 97.415315 92.687979 
C 97.977896 93.25056 98.741026 93.566659 99.536635 93.566659 
z
" clip-path="url(#pb09e106b95)" style="fill: #808080; fill-opacity: 0.5; stroke: #ffffff; stroke-opacity: 0.5; stroke-width: 0.48"/>
    <path d="M 113.129475 69.335869 
C 113.925085 69.335869 114.688215 69.01977 115.250796 68.457189 
C 115.813376 67.894608 116.129475 67.131478 116.129475 66.335869 
C 116.129475 65.540259 115.813376 64.777129 115.250796 64.214548 
C 114.688215 63.651967 113.925085 63.335869 113.129475 63.335869 
C 112.333866 63.335869 111.570736 63.651967 111.008155 64.214548 
C 110.445574 64.777129 110.129475 65.540259 110.129475 66.335869 
C 110.129475 67.131478 110.445574 67.894608 111.008155 68.457189 
C 111.570736 69.01977 112.333866 69.335869 113.129475 69.335869 
z
" clip-path="url(#pb09e106b95)" style="fill: #808080; fill-opacity: 0.5; stroke: #ffffff; stroke-opacity: 0.5; stroke-width: 0.48"/>
    <path d="M 104.194494 71.999505 
C 104.990104 71.999505 105.753234 71.683406 106.315815 71.120825 
C 106.878395 70.558244 107.194494 69.795114 107.194494 68.999505 
C 107.194494 68.203895 106.878395 67.440765 106.315815 66.878184 
C 105.753234 66.315603 104.990104 65.999505 104.194494 65.999505 
C 103.398885 65.999505 102.635755 66.315603 102.073174 66.878184 
C 101.510593 67.440765 101.194494 68.203895 101.194494 68.999505 
C 101.194494 69.795114 101.510593 70.558244 102.073174 71.120825 
C 102.635755 71.683406 103.398885 71.999505 104.194494 71.999505 
z
" clip-path="url(#pb09e106b95)" style="fill: #808080; fill-opacity: 0.5; stroke: #ffffff; stroke-opacity: 0.5; stroke-width: 0.48"/>
    <path d="M 97.192021 61.589193 
C 97.98763 61.589193 98.75076 61.273094 99.313341 60.710514 
C 99.875922 60.147933 100.192021 59.384803 100.192021 58.589193 
C 100.192021 57.793584 99.875922 57.030454 99.313341 56.467873 
C 98.75076 55.905292 97.98763 55.589193 97.192021 55.589193 
C 96.396411 55.589193 95.633281 55.905292 95.0707 56.467873 
C 94.50812 57.030454 94.192021 57.793584 94.192021 58.589193 
C 94.192021 59.384803 94.50812 60.147933 95.0707 60.710514 
C 95.633281 61.273094 96.396411 61.589193 97.192021 61.589193 
z
" clip-path="url(#pb09e106b95)" style="fill: #808080; fill-opacity: 0.5; stroke: #ffffff; stroke-opacity: 0.5; stroke-width: 0.48"/>
    <path d="M 94.197697 95.892396 
C 94.993306 95.892396 95.756436 95.576297 96.319017 95.013716 
C 96.881598 94.451135 97.197697 93.688005 97.197697 92.892396 
C 97.197697 92.096786 96.881598 91.333656 96.319017 90.771075 
C 95.756436 90.208495 94.993306 89.892396 94.197697 89.892396 
C 93.402087 89.892396 92.638957 90.208495 92.076376 90.771075 
C 91.513796 91.333656 91.197697 92.096786 91.197697 92.892396 
C 91.197697 93.688005 91.513796 94.451135 92.076376 95.013716 
C 92.638957 95.576297 93.402087 95.892396 94.197697 95.892396 
z
" clip-path="url(#pb09e106b95)" style="fill: #808080; fill-opacity: 0.5; stroke: #ffffff; stroke-opacity: 0.5; stroke-width: 0.48"/>
    <path d="M 98.496711 110.258649 
C 99.29232 110.258649 100.055451 109.94255 100.618031 109.379969 
C 101.180612 108.817388 101.496711 108.054258 101.496711 107.258649 
C 101.496711 106.463039 101.180612 105.699909 100.618031 105.137328 
C 100.055451 104.574748 99.29232 104.258649 98.496711 104.258649 
C 97.701102 104.258649 96.937971 104.574748 96.375391 105.137328 
C 95.81281 105.699909 95.496711 106.463039 95.496711 107.258649 
C 95.496711 108.054258 95.81281 108.817388 96.375391 109.379969 
C 96.937971 109.94255 97.701102 110.258649 98.496711 110.258649 
z
" clip-path="url(#pb09e106b95)" style="fill: #808080; fill-opacity: 0.5; stroke: #ffffff; stroke-opacity: 0.5; stroke-width: 0.48"/>
    <path d="M 74.507199 163.272217 
C 75.302809 163.272217 76.065939 162.956118 76.62852 162.393537 
C 77.1911 161.830957 77.507199 161.067826 77.507199 160.272217 
C 77.507199 159.476608 77.1911 158.713477 76.62852 158.150897 
C 76.065939 157.588316 75.302809 157.272217 74.507199 157.272217 
C 73.71159 157.272217 72.94846 157.588316 72.385879 158.150897 
C 71.823298 158.713477 71.507199 159.476608 71.507199 160.272217 
C 71.507199 161.067826 71.823298 161.830957 72.385879 162.393537 
C 72.94846 162.956118 73.71159 163.272217 74.507199 163.272217 
z
" clip-path="url(#pb09e106b95)" style="fill: #808080; fill-opacity: 0.5; stroke: #ffffff; stroke-opacity: 0.5; stroke-width: 0.48"/>
    <path d="M 90.428649 99.820004 
C 91.224258 99.820004 91.987389 99.503905 92.549969 98.941325 
C 93.11255 98.378744 93.428649 97.615614 93.428649 96.820004 
C 93.428649 96.024395 93.11255 95.261265 92.549969 94.698684 
C 91.987389 94.136103 91.224258 93.820004 90.428649 93.820004 
C 89.63304 93.820004 88.869909 94.136103 88.307329 94.698684 
C 87.744748 95.261265 87.428649 96.024395 87.428649 96.820004 
C 87.428649 97.615614 87.744748 98.378744 88.307329 98.941325 
C 88.869909 99.503905 89.63304 99.820004 90.428649 99.820004 
z
" clip-path="url(#pb09e106b95)" style="fill: #808080; fill-opacity: 0.5; stroke: #ffffff; stroke-opacity: 0.5; stroke-width: 0.48"/>
    <path d="M 107.966483 82.273408 
C 108.762093 82.273408 109.525223 81.957309 110.087804 81.394728 
C 110.650384 80.832147 110.966483 80.069017 110.966483 79.273408 
C 110.966483 78.477798 110.650384 77.714668 110.087804 77.152087 
C 109.525223 76.589507 108.762093 76.273408 107.966483 76.273408 
C 107.170874 76.273408 106.407744 76.589507 105.845163 77.152087 
C 105.282582 77.714668 104.966483 78.477798 104.966483 79.273408 
C 104.966483 80.069017 105.282582 80.832147 105.845163 81.394728 
C 106.407744 81.957309 107.170874 82.273408 107.966483 82.273408 
z
" clip-path="url(#pb09e106b95)" style="fill: #808080; fill-opacity: 0.5; stroke: #ffffff; stroke-opacity: 0.5; stroke-width: 0.48"/>
    <path d="M 65.519806 201.51843 
C 66.315415 201.51843 67.078546 201.202331 67.641126 200.63975 
C 68.203707 200.07717 68.519806 199.314039 68.519806 198.51843 
C 68.519806 197.722821 68.203707 196.95969 67.641126 196.39711 
C 67.078546 195.834529 66.315415 195.51843 65.519806 195.51843 
C 64.724197 195.51843 63.961066 195.834529 63.398486 196.39711 
C 62.835905 196.95969 62.519806 197.722821 62.519806 198.51843 
C 62.519806 199.314039 62.835905 200.07717 63.398486 200.63975 
C 63.961066 201.202331 64.724197 201.51843 65.519806 201.51843 
z
" clip-path="url(#pb09e106b95)" style="fill: #ff0000; fill-opacity: 0.5; stroke: #ffffff; stroke-opacity: 0.5; stroke-width: 0.48"/>
    <path d="M 87.700793 224.073327 
C 88.496403 224.073327 89.259533 223.757228 89.822114 223.194647 
C 90.384694 222.632066 90.700793 221.868936 90.700793 221.073327 
C 90.700793 220.277717 90.384694 219.514587 89.822114 218.952006 
C 89.259533 218.389425 88.496403 218.073327 87.700793 218.073327 
C 86.905184 218.073327 86.142054 218.389425 85.579473 218.952006 
C 85.016892 219.514587 84.700793 220.277717 84.700793 221.073327 
C 84.700793 221.868936 85.016892 222.632066 85.579473 223.194647 
C 86.142054 223.757228 86.905184 224.073327 87.700793 224.073327 
z
" clip-path="url(#pb09e106b95)" style="fill: #ff0000; fill-opacity: 0.5; stroke: #ffffff; stroke-opacity: 0.5; stroke-width: 0.48"/>
    <path d="M 83.595474 221.855586 
C 84.391083 221.855586 85.154214 221.539487 85.716794 220.976907 
C 86.279375 220.414326 86.595474 219.651196 86.595474 218.855586 
C 86.595474 218.059977 86.279375 217.296847 85.716794 216.734266 
C 85.154214 216.171685 84.391083 215.855586 83.595474 215.855586 
C 82.799865 215.855586 82.036734 216.171685 81.474154 216.734266 
C 80.911573 217.296847 80.595474 218.059977 80.595474 218.855586 
C 80.595474 219.651196 80.911573 220.414326 81.474154 220.976907 
C 82.036734 221.539487 82.799865 221.855586 83.595474 221.855586 
z
" clip-path="url(#pb09e106b95)" style="fill: #ff0000; fill-opacity: 0.5; stroke: #ffffff; stroke-opacity: 0.5; stroke-width: 0.48"/>
    <path d="M 84.617778 256.237656 
C 85.413387 256.237656 86.176518 255.921557 86.739098 255.358976 
C 87.301679 254.796395 87.617778 254.033265 87.617778 253.237656 
C 87.617778 252.442047 87.301679 251.678916 86.739098 251.116336 
C 86.176518 250.553755 85.413387 250.237656 84.617778 250.237656 
C 83.822169 250.237656 83.059038 250.553755 82.496458 251.116336 
C 81.933877 251.678916 81.617778 252.442047 81.617778 253.237656 
C 81.617778 254.033265 81.933877 254.796395 82.496458 255.358976 
C 83.059038 255.921557 83.822169 256.237656 84.617778 256.237656 
z
" clip-path="url(#pb09e106b95)" style="fill: #ff0000; fill-opacity: 0.5; stroke: #ffffff; stroke-opacity: 0.5; stroke-width: 0.48"/>
    <path d="M 99.169702 256.774119 
C 99.965311 256.774119 100.728441 256.45802 101.291022 255.895439 
C 101.853603 255.332858 102.169702 254.569728 102.169702 253.774119 
C 102.169702 252.97851 101.853603 252.215379 101.291022 251.652798 
C 100.728441 251.090218 99.965311 250.774119 99.169702 250.774119 
C 98.374092 250.774119 97.610962 251.090218 97.048381 251.652798 
C 96.485801 252.215379 96.169702 252.97851 96.169702 253.774119 
C 96.169702 254.569728 96.485801 255.332858 97.048381 255.895439 
C 97.610962 256.45802 98.374092 256.774119 99.169702 256.774119 
z
" clip-path="url(#pb09e106b95)" style="fill: #ff0000; fill-opacity: 0.5; stroke: #ffffff; stroke-opacity: 0.5; stroke-width: 0.48"/>
    <path d="M 69.704604 211.47541 
C 70.500213 211.47541 71.263343 211.159311 71.825924 210.596731 
C 72.388505 210.03415 72.704604 209.27102 72.704604 208.47541 
C 72.704604 207.679801 72.388505 206.916671 71.825924 206.35409 
C 71.263343 205.791509 70.500213 205.47541 69.704604 205.47541 
C 68.908994 205.47541 68.145864 205.791509 67.583283 206.35409 
C 67.020703 206.916671 66.704604 207.679801 66.704604 208.47541 
C 66.704604 209.27102 67.020703 210.03415 67.583283 210.596731 
C 68.145864 211.159311 68.908994 211.47541 69.704604 211.47541 
z
" clip-path="url(#pb09e106b95)" style="fill: #808080; fill-opacity: 0.5; stroke: #ffffff; stroke-opacity: 0.5; stroke-width: 0.48"/>
   </g>
   <g id="PathCollection_2"/>
   <g id="PathCollection_3"/>
   <g id="PathCollection_4"/>
   <g id="PathCollection_5"/>
   <g id="PathCollection_6"/>
   <g id="matplotlib.axis_1">
    <g id="xtick_1">
     <g id="line2d_1">
      <defs>
       <path id="mc573c263fd" d="M 0 0 
L 0 3.5 
" style="stroke: #000000; stroke-width: 0.8"/>
      </defs>
      <g>
       <use xlink:href="#mc573c263fd" x="69.704604" y="264.328" style="stroke: #000000; stroke-width: 0.8"/>
      </g>
     </g>
     <g id="text_1">
      <!-- $\mathdefault{2^{0}}$ -->
      <g transform="translate(64.104604 278.926437)">
       <text>
        <tspan style="font: 10px 'DejaVu Sans'" x="0" y="-0.9765625">2</tspan>
        <tspan style="font: 7px 'DejaVu Sans'" x="6.458008" y="-4.8046875">0</tspan>
       </text>
      </g>
     </g>
    </g>
    <g id="xtick_2">
     <g id="line2d_2">
      <g>
       <use xlink:href="#mc573c263fd" x="125.285444" y="264.328" style="stroke: #000000; stroke-width: 0.8"/>
      </g>
     </g>
     <g id="text_2">
      <!-- $\mathdefault{2^{1}}$ -->
      <g transform="translate(119.685444 278.926437)">
       <text>
        <tspan style="font: 10px 'DejaVu Sans'" x="0" y="-0.06406250000000036">2</tspan>
        <tspan style="font: 7px 'DejaVu Sans'" x="6.458008" y="-3.8921875000000004">1</tspan>
       </text>
      </g>
     </g>
    </g>
    <g id="text_3">
     <text style="font: 10px 'DejaVu Sans', 'Bitstream Vera Sans', 'Computer Modern Sans Serif', 'Lucida Grande', 'Verdana', 'Geneva', 'Lucid', 'Arial', 'Helvetica', 'Avant Garde', sans-serif; text-anchor: middle" x="93.782008" y="292.604562" transform="rotate(-0 93.782008 292.604562)">solid medium</text>
    </g>
   </g>
   <g id="matplotlib.axis_2">
    <g id="ytick_1">
     <g id="line2d_3">
      <defs>
       <path id="m0424ff5152" d="M 0 0 
L -3.5 0 
" style="stroke: #000000; stroke-width: 0.8"/>
      </defs>
      <g>
       <use xlink:href="#m0424ff5152" x="43.743005" y="208.47541" style="stroke: #000000; stroke-width: 0.8"/>
      </g>
     </g>
     <g id="text_4">
      <!-- $\mathdefault{2^{0}}$ -->
      <g transform="translate(25.543005 212.274629)">
       <text>
        <tspan style="font: 10px 'DejaVu Sans'" x="0" y="-0.9765625">2</tspan>
        <tspan style="font: 7px 'DejaVu Sans'" x="6.458008" y="-4.8046875">0</tspan>
       </text>
      </g>
     </g>
    </g>
    <g id="ytick_2">
     <g id="line2d_4">
      <g>
       <use xlink:href="#m0424ff5152" x="43.743005" y="116.597705" style="stroke: #000000; stroke-width: 0.8"/>
      </g>
     </g>
     <g id="text_5">
      <!-- $\mathdefault{2^{1}}$ -->
      <g transform="translate(25.543005 120.396924)">
       <text>
        <tspan style="font: 10px 'DejaVu Sans'" x="0" y="-0.06406250000000036">2</tspan>
        <tspan style="font: 7px 'DejaVu Sans'" x="6.458008" y="-3.8921875000000004">1</tspan>
       </text>
      </g>
     </g>
    </g>
    <g id="ytick_3">
     <g id="line2d_5">
      <g>
       <use xlink:href="#m0424ff5152" x="43.743005" y="24.72" style="stroke: #000000; stroke-width: 0.8"/>
      </g>
     </g>
     <g id="text_6">
      <!-- $\mathdefault{2^{2}}$ -->
      <g transform="translate(25.543005 28.519219)">
       <text>
        <tspan style="font: 10px 'DejaVu Sans'" x="0" y="-0.9765625">2</tspan>
        <tspan style="font: 7px 'DejaVu Sans'" x="6.458008" y="-4.8046875">2</tspan>
       </text>
      </g>
     </g>
    </g>
    <g id="text_7">
     <text style="font: 10px 'DejaVu Sans', 'Bitstream Vera Sans', 'Computer Modern Sans Serif', 'Lucida Grande', 'Verdana', 'Geneva', 'Lucid', 'Arial', 'Helvetica', 'Avant Garde', sans-serif; text-anchor: middle" x="19.463317" y="144.524" transform="rotate(-90 19.463317 144.524)">liquid medium</text>
    </g>
   </g>
   <g id="patch_3">
    <path d="M 43.743005 264.328 
L 43.743005 24.72 
" style="fill: none; stroke: #000000; stroke-width: 0.8; stroke-linejoin: miter; stroke-linecap: square"/>
   </g>
   <g id="patch_4">
    <path d="M 43.743005 264.328 
L 143.821012 264.328 
" style="fill: none; stroke: #000000; stroke-width: 0.8; stroke-linejoin: miter; stroke-linecap: square"/>
   </g>
   <g id="text_8">
    <text style="font: 10px 'DejaVu Sans', 'Bitstream Vera Sans', 'Computer Modern Sans Serif', 'Lucida Grande', 'Verdana', 'Geneva', 'Lucid', 'Arial', 'Helvetica', 'Avant Garde', sans-serif; text-anchor: middle" x="69.704604" y="203.276646" transform="rotate(-0 69.704604 203.276646)">WT</text>
   </g>
   <g id="text_9">
    <text style="font: 10px 'DejaVu Sans', 'Bitstream Vera Sans', 'Computer Modern Sans Serif', 'Lucida Grande', 'Verdana', 'Geneva', 'Lucid', 'Arial', 'Helvetica', 'Avant Garde', sans-serif" transform="translate(51.811569 31.221975)">S. rho 0.67</text>
    <text style="font: 10px 'DejaVu Sans', 'Bitstream Vera Sans', 'Computer Modern Sans Serif', 'Lucida Grande', 'Verdana', 'Geneva', 'Lucid', 'Arial', 'Helvetica', 'Avant Garde', sans-serif" transform="translate(51.811569 42.419788)">p-val 1.20e-07</text>
   </g>
   <g id="text_10">
    <text style="font: 10px 'DejaVu Sans', 'Bitstream Vera Sans', 'Computer Modern Sans Serif', 'Lucida Grande', 'Verdana', 'Geneva', 'Lucid', 'Arial', 'Helvetica', 'Avant Garde', sans-serif; text-anchor: middle" x="93.782008" y="18.72" transform="rotate(-0 93.782008 18.72)">LL13-040</text>
   </g>
  </g>
  <g id="axes_2">
   <g id="patch_5">
    <path d="M 158.121012 264.328 
L 258.19902 264.328 
L 258.19902 24.72 
L 158.121012 24.72 
z
" style="fill: #ffffff"/>
   </g>
   <g id="PathCollection_7">
    <path d="M 242.336775 77.032628 
C 243.132385 77.032628 243.895515 76.716529 244.458096 76.153948 
C 245.020676 75.591367 245.336775 74.828237 245.336775 74.032628 
C 245.336775 73.237018 245.020676 72.473888 244.458096 71.911307 
C 243.895515 71.348727 243.132385 71.032628 242.336775 71.032628 
C 241.541166 71.032628 240.778036 71.348727 240.215455 71.911307 
C 239.652874 72.473888 239.336775 73.237018 239.336775 74.032628 
C 239.336775 74.828237 239.652874 75.591367 240.215455 76.153948 
C 240.778036 76.716529 241.541166 77.032628 242.336775 77.032628 
z
" clip-path="url(#peea22aefdc)" style="fill: #808080; fill-opacity: 0.5; stroke: #ffffff; stroke-opacity: 0.5; stroke-width: 0.48"/>
    <path d="M 244.117198 74.704156 
C 244.912808 74.704156 245.675938 74.388057 246.238519 73.825476 
C 246.801099 73.262895 247.117198 72.499765 247.117198 71.704156 
C 247.117198 70.908546 246.801099 70.145416 246.238519 69.582835 
C 245.675938 69.020254 244.912808 68.704156 244.117198 68.704156 
C 243.321589 68.704156 242.558459 69.020254 241.995878 69.582835 
C 241.433297 70.145416 241.117198 70.908546 241.117198 71.704156 
C 241.117198 72.499765 241.433297 73.262895 241.995878 73.825476 
C 242.558459 74.388057 243.321589 74.704156 244.117198 74.704156 
z
" clip-path="url(#peea22aefdc)" style="fill: #808080; fill-opacity: 0.5; stroke: #ffffff; stroke-opacity: 0.5; stroke-width: 0.48"/>
    <path d="M 242.912927 83.015418 
C 243.708536 83.015418 244.471667 82.699319 245.034247 82.136738 
C 245.596828 81.574158 245.912927 80.811027 245.912927 80.015418 
C 245.912927 79.219809 245.596828 78.456678 245.034247 77.894098 
C 244.471667 77.331517 243.708536 77.015418 242.912927 77.015418 
C 242.117318 77.015418 241.354187 77.331517 240.791607 77.894098 
C 240.229026 78.456678 239.912927 79.219809 239.912927 80.015418 
C 239.912927 80.811027 240.229026 81.574158 240.791607 82.136738 
C 241.354187 82.699319 242.117318 83.015418 242.912927 83.015418 
z
" clip-path="url(#peea22aefdc)" style="fill: #808080; fill-opacity: 0.5; stroke: #ffffff; stroke-opacity: 0.5; stroke-width: 0.48"/>
    <path d="M 242.727523 77.366608 
C 243.523133 77.366608 244.286263 77.050509 244.848844 76.487929 
C 245.411425 75.925348 245.727523 75.162218 245.727523 74.366608 
C 245.727523 73.570999 245.411425 72.807869 244.848844 72.245288 
C 244.286263 71.682707 243.523133 71.366608 242.727523 71.366608 
C 241.931914 71.366608 241.168784 71.682707 240.606203 72.245288 
C 240.043622 72.807869 239.727523 73.570999 239.727523 74.366608 
C 239.727523 75.162218 240.043622 75.925348 240.606203 76.487929 
C 241.168784 77.050509 241.931914 77.366608 242.727523 77.366608 
z
" clip-path="url(#peea22aefdc)" style="fill: #808080; fill-opacity: 0.5; stroke: #ffffff; stroke-opacity: 0.5; stroke-width: 0.48"/>
    <path d="M 247.287077 71.890483 
C 248.082686 71.890483 248.845817 71.574384 249.408397 71.011803 
C 249.970978 70.449223 250.287077 69.686092 250.287077 68.890483 
C 250.287077 68.094874 249.970978 67.331743 249.408397 66.769163 
C 248.845817 66.206582 248.082686 65.890483 247.287077 65.890483 
C 246.491468 65.890483 245.728337 66.206582 245.165757 66.769163 
C 244.603176 67.331743 244.287077 68.094874 244.287077 68.890483 
C 244.287077 69.686092 244.603176 70.449223 245.165757 71.011803 
C 245.728337 71.574384 246.491468 71.890483 247.287077 71.890483 
z
" clip-path="url(#peea22aefdc)" style="fill: #808080; fill-opacity: 0.5; stroke: #ffffff; stroke-opacity: 0.5; stroke-width: 0.48"/>
    <path d="M 246.962359 70.415575 
C 247.757969 70.415575 248.521099 70.099476 249.08368 69.536896 
C 249.64626 68.974315 249.962359 68.211185 249.962359 67.415575 
C 249.962359 66.619966 249.64626 65.856836 249.08368 65.294255 
C 248.521099 64.731674 247.757969 64.415575 246.962359 64.415575 
C 246.16675 64.415575 245.40362 64.731674 244.841039 65.294255 
C 244.278458 65.856836 243.962359 66.619966 243.962359 67.415575 
C 243.962359 68.211185 244.278458 68.974315 244.841039 69.536896 
C 245.40362 70.099476 246.16675 70.415575 246.962359 70.415575 
z
" clip-path="url(#peea22aefdc)" style="fill: #808080; fill-opacity: 0.5; stroke: #ffffff; stroke-opacity: 0.5; stroke-width: 0.48"/>
    <path d="M 243.508501 89.180269 
C 244.30411 89.180269 245.06724 88.86417 245.629821 88.301589 
C 246.192402 87.739008 246.508501 86.975878 246.508501 86.180269 
C 246.508501 85.384659 246.192402 84.621529 245.629821 84.058948 
C 245.06724 83.496368 244.30411 83.180269 243.508501 83.180269 
C 242.712891 83.180269 241.949761 83.496368 241.38718 84.058948 
C 240.824599 84.621529 240.508501 85.384659 240.508501 86.180269 
C 240.508501 86.975878 240.824599 87.739008 241.38718 88.301589 
C 241.949761 88.86417 242.712891 89.180269 243.508501 89.180269 
z
" clip-path="url(#peea22aefdc)" style="fill: #808080; fill-opacity: 0.5; stroke: #ffffff; stroke-opacity: 0.5; stroke-width: 0.48"/>
    <path d="M 253.65002 55.56825 
C 254.445629 55.56825 255.208759 55.252151 255.77134 54.68957 
C 256.333921 54.126989 256.65002 53.363859 256.65002 52.56825 
C 256.65002 51.77264 256.333921 51.00951 255.77134 50.446929 
C 255.208759 49.884349 254.445629 49.56825 253.65002 49.56825 
C 252.85441 49.56825 252.09128 49.884349 251.528699 50.446929 
C 250.966119 51.00951 250.65002 51.77264 250.65002 52.56825 
C 250.65002 53.363859 250.966119 54.126989 251.528699 54.68957 
C 252.09128 55.252151 252.85441 55.56825 253.65002 55.56825 
z
" clip-path="url(#peea22aefdc)" style="fill: #808080; fill-opacity: 0.5; stroke: #ffffff; stroke-opacity: 0.5; stroke-width: 0.48"/>
    <path d="M 184.082611 211.47541 
C 184.878221 211.47541 185.641351 211.159311 186.203932 210.596731 
C 186.766512 210.03415 187.082611 209.27102 187.082611 208.47541 
C 187.082611 207.679801 186.766512 206.916671 186.203932 206.35409 
C 185.641351 205.791509 184.878221 205.47541 184.082611 205.47541 
C 183.287002 205.47541 182.523872 205.791509 181.961291 206.35409 
C 181.39871 206.916671 181.082611 207.679801 181.082611 208.47541 
C 181.082611 209.27102 181.39871 210.03415 181.961291 210.596731 
C 182.523872 211.159311 183.287002 211.47541 184.082611 211.47541 
z
" clip-path="url(#peea22aefdc)" style="fill: #808080; fill-opacity: 0.5; stroke: #ffffff; stroke-opacity: 0.5; stroke-width: 0.48"/>
    <path d="M 248.292215 77.436079 
C 249.087824 77.436079 249.850954 77.11998 250.413535 76.557399 
C 250.976116 75.994819 251.292215 75.231688 251.292215 74.436079 
C 251.292215 73.64047 250.976116 72.877339 250.413535 72.314759 
C 249.850954 71.752178 249.087824 71.436079 248.292215 71.436079 
C 247.496605 71.436079 246.733475 71.752178 246.170894 72.314759 
C 245.608314 72.877339 245.292215 73.64047 245.292215 74.436079 
C 245.292215 75.231688 245.608314 75.994819 246.170894 76.557399 
C 246.733475 77.11998 247.496605 77.436079 248.292215 77.436079 
z
" clip-path="url(#peea22aefdc)" style="fill: #808080; fill-opacity: 0.5; stroke: #ffffff; stroke-opacity: 0.5; stroke-width: 0.48"/>
    <path d="M 245.631561 77.042124 
C 246.42717 77.042124 247.190301 76.726025 247.752881 76.163444 
C 248.315462 75.600863 248.631561 74.837733 248.631561 74.042124 
C 248.631561 73.246515 248.315462 72.483384 247.752881 71.920804 
C 247.190301 71.358223 246.42717 71.042124 245.631561 71.042124 
C 244.835952 71.042124 244.072822 71.358223 243.510241 71.920804 
C 242.94766 72.483384 242.631561 73.246515 242.631561 74.042124 
C 242.631561 74.837733 242.94766 75.600863 243.510241 76.163444 
C 244.072822 76.726025 244.835952 77.042124 245.631561 77.042124 
z
" clip-path="url(#peea22aefdc)" style="fill: #808080; fill-opacity: 0.5; stroke: #ffffff; stroke-opacity: 0.5; stroke-width: 0.48"/>
    <path d="M 197.086767 68.610415 
L 201.329407 64.367774 
L 197.086767 60.125133 
L 192.844126 64.367774 
z
" clip-path="url(#peea22aefdc)" style="fill: #808080; fill-opacity: 0.5; stroke: #ffffff; stroke-opacity: 0.5; stroke-width: 0.48"/>
    <path d="M 247.676127 83.104925 
C 248.471737 83.104925 249.234867 82.788826 249.797448 82.226246 
C 250.360028 81.663665 250.676127 80.900535 250.676127 80.104925 
C 250.676127 79.309316 250.360028 78.546186 249.797448 77.983605 
C 249.234867 77.421024 248.471737 77.104925 247.676127 77.104925 
C 246.880518 77.104925 246.117388 77.421024 245.554807 77.983605 
C 244.992226 78.546186 244.676127 79.309316 244.676127 80.104925 
C 244.676127 80.900535 244.992226 81.663665 245.554807 82.226246 
C 246.117388 82.788826 246.880518 83.104925 247.676127 83.104925 
z
" clip-path="url(#peea22aefdc)" style="fill: #808080; fill-opacity: 0.5; stroke: #ffffff; stroke-opacity: 0.5; stroke-width: 0.48"/>
    <path d="M 247.340368 101.309072 
C 248.135977 101.309072 248.899108 100.992973 249.461688 100.430392 
C 250.024269 99.867812 250.340368 99.104681 250.340368 98.309072 
C 250.340368 97.513463 250.024269 96.750332 249.461688 96.187752 
C 248.899108 95.625171 248.135977 95.309072 247.340368 95.309072 
C 246.544759 95.309072 245.781628 95.625171 245.219048 96.187752 
C 244.656467 96.750332 244.340368 97.513463 244.340368 98.309072 
C 244.340368 99.104681 244.656467 99.867812 245.219048 100.430392 
C 245.781628 100.992973 246.544759 101.309072 247.340368 101.309072 
z
" clip-path="url(#peea22aefdc)" style="fill: #808080; fill-opacity: 0.5; stroke: #ffffff; stroke-opacity: 0.5; stroke-width: 0.48"/>
    <path d="M 249.786884 82.657146 
C 250.582493 82.657146 251.345623 82.341047 251.908204 81.778466 
C 252.470785 81.215885 252.786884 80.452755 252.786884 79.657146 
C 252.786884 78.861536 252.470785 78.098406 251.908204 77.535825 
C 251.345623 76.973244 250.582493 76.657146 249.786884 76.657146 
C 248.991275 76.657146 248.228144 76.973244 247.665564 77.535825 
C 247.102983 78.098406 246.786884 78.861536 246.786884 79.657146 
C 246.786884 80.452755 247.102983 81.215885 247.665564 81.778466 
C 248.228144 82.341047 248.991275 82.657146 249.786884 82.657146 
z
" clip-path="url(#peea22aefdc)" style="fill: #808080; fill-opacity: 0.5; stroke: #ffffff; stroke-opacity: 0.5; stroke-width: 0.48"/>
    <path d="M 246.052217 63.981791 
C 246.847826 63.981791 247.610957 63.665692 248.173537 63.103112 
C 248.736118 62.540531 249.052217 61.777401 249.052217 60.981791 
C 249.052217 60.186182 248.736118 59.423052 248.173537 58.860471 
C 247.610957 58.29789 246.847826 57.981791 246.052217 57.981791 
C 245.256608 57.981791 244.493478 58.29789 243.930897 58.860471 
C 243.368316 59.423052 243.052217 60.186182 243.052217 60.981791 
C 243.052217 61.777401 243.368316 62.540531 243.930897 63.103112 
C 244.493478 63.665692 245.256608 63.981791 246.052217 63.981791 
z
" clip-path="url(#peea22aefdc)" style="fill: #808080; fill-opacity: 0.5; stroke: #ffffff; stroke-opacity: 0.5; stroke-width: 0.48"/>
    <path d="M 247.411835 80.748297 
C 248.207444 80.748297 248.970574 80.432198 249.533155 79.869617 
C 250.095736 79.307036 250.411835 78.543906 250.411835 77.748297 
C 250.411835 76.952687 250.095736 76.189557 249.533155 75.626976 
C 248.970574 75.064396 248.207444 74.748297 247.411835 74.748297 
C 246.616225 74.748297 245.853095 75.064396 245.290514 75.626976 
C 244.727934 76.189557 244.411835 76.952687 244.411835 77.748297 
C 244.411835 78.543906 244.727934 79.307036 245.290514 79.869617 
C 245.853095 80.432198 246.616225 80.748297 247.411835 80.748297 
z
" clip-path="url(#peea22aefdc)" style="fill: #808080; fill-opacity: 0.5; stroke: #ffffff; stroke-opacity: 0.5; stroke-width: 0.48"/>
    <path d="M 233.0813 132.865068 
C 233.87691 132.865068 234.64004 132.548969 235.202621 131.986388 
C 235.765201 131.423807 236.0813 130.660677 236.0813 129.865068 
C 236.0813 129.069458 235.765201 128.306328 235.202621 127.743747 
C 234.64004 127.181167 233.87691 126.865068 233.0813 126.865068 
C 232.285691 126.865068 231.522561 127.181167 230.95998 127.743747 
C 230.397399 128.306328 230.0813 129.069458 230.0813 129.865068 
C 230.0813 130.660677 230.397399 131.423807 230.95998 131.986388 
C 231.522561 132.548969 232.285691 132.865068 233.0813 132.865068 
z
" clip-path="url(#peea22aefdc)" style="fill: #808080; fill-opacity: 0.5; stroke: #ffffff; stroke-opacity: 0.5; stroke-width: 0.48"/>
    <path d="M 246.553542 75.391303 
C 247.349152 75.391303 248.112282 75.075204 248.674863 74.512624 
C 249.237443 73.950043 249.553542 73.186913 249.553542 72.391303 
C 249.553542 71.595694 249.237443 70.832564 248.674863 70.269983 
C 248.112282 69.707402 247.349152 69.391303 246.553542 69.391303 
C 245.757933 69.391303 244.994803 69.707402 244.432222 70.269983 
C 243.869641 70.832564 243.553542 71.595694 243.553542 72.391303 
C 243.553542 73.186913 243.869641 73.950043 244.432222 74.512624 
C 244.994803 75.075204 245.757933 75.391303 246.553542 75.391303 
z
" clip-path="url(#peea22aefdc)" style="fill: #808080; fill-opacity: 0.5; stroke: #ffffff; stroke-opacity: 0.5; stroke-width: 0.48"/>
    <path d="M 245.076846 64.614017 
C 245.872455 64.614017 246.635586 64.297918 247.198166 63.735338 
C 247.760747 63.172757 248.076846 62.409627 248.076846 61.614017 
C 248.076846 60.818408 247.760747 60.055278 247.198166 59.492697 
C 246.635586 58.930116 245.872455 58.614017 245.076846 58.614017 
C 244.281237 58.614017 243.518106 58.930116 242.955526 59.492697 
C 242.392945 60.055278 242.076846 60.818408 242.076846 61.614017 
C 242.076846 62.409627 242.392945 63.172757 242.955526 63.735338 
C 243.518106 64.297918 244.281237 64.614017 245.076846 64.614017 
z
" clip-path="url(#peea22aefdc)" style="fill: #808080; fill-opacity: 0.5; stroke: #ffffff; stroke-opacity: 0.5; stroke-width: 0.48"/>
    <path d="M 245.645881 84.850015 
C 246.44149 84.850015 247.204621 84.533916 247.767201 83.971335 
C 248.329782 83.408754 248.645881 82.645624 248.645881 81.850015 
C 248.645881 81.054406 248.329782 80.291275 247.767201 79.728695 
C 247.204621 79.166114 246.44149 78.850015 245.645881 78.850015 
C 244.850272 78.850015 244.087142 79.166114 243.524561 79.728695 
C 242.96198 80.291275 242.645881 81.054406 242.645881 81.850015 
C 242.645881 82.645624 242.96198 83.408754 243.524561 83.971335 
C 244.087142 84.533916 244.850272 84.850015 245.645881 84.850015 
z
" clip-path="url(#peea22aefdc)" style="fill: #808080; fill-opacity: 0.5; stroke: #ffffff; stroke-opacity: 0.5; stroke-width: 0.48"/>
    <path d="M 242.364376 96.005363 
C 243.159986 96.005363 243.923116 95.689264 244.485697 95.126683 
C 245.048277 94.564103 245.364376 93.800972 245.364376 93.005363 
C 245.364376 92.209754 245.048277 91.446623 244.485697 90.884043 
C 243.923116 90.321462 243.159986 90.005363 242.364376 90.005363 
C 241.568767 90.005363 240.805637 90.321462 240.243056 90.884043 
C 239.680475 91.446623 239.364376 92.209754 239.364376 93.005363 
C 239.364376 93.800972 239.680475 94.564103 240.243056 95.126683 
C 240.805637 95.689264 241.568767 96.005363 242.364376 96.005363 
z
" clip-path="url(#peea22aefdc)" style="fill: #808080; fill-opacity: 0.5; stroke: #ffffff; stroke-opacity: 0.5; stroke-width: 0.48"/>
    <path d="M 245.793943 69.835204 
C 246.589552 69.835204 247.352683 69.519105 247.915263 68.956524 
C 248.477844 68.393943 248.793943 67.630813 248.793943 66.835204 
C 248.793943 66.039594 248.477844 65.276464 247.915263 64.713883 
C 247.352683 64.151302 246.589552 63.835204 245.793943 63.835204 
C 244.998334 63.835204 244.235203 64.151302 243.672623 64.713883 
C 243.110042 65.276464 242.793943 66.039594 242.793943 66.835204 
C 242.793943 67.630813 243.110042 68.393943 243.672623 68.956524 
C 244.235203 69.519105 244.998334 69.835204 245.793943 69.835204 
z
" clip-path="url(#peea22aefdc)" style="fill: #808080; fill-opacity: 0.5; stroke: #ffffff; stroke-opacity: 0.5; stroke-width: 0.48"/>
    <path d="M 242.324091 68.485999 
C 243.1197 68.485999 243.88283 68.1699 244.445411 67.60732 
C 245.007992 67.044739 245.324091 66.281609 245.324091 65.485999 
C 245.324091 64.69039 245.007992 63.92726 244.445411 63.364679 
C 243.88283 62.802098 243.1197 62.485999 242.324091 62.485999 
C 241.528481 62.485999 240.765351 62.802098 240.20277 63.364679 
C 239.64019 63.92726 239.324091 64.69039 239.324091 65.485999 
C 239.324091 66.281609 239.64019 67.044739 240.20277 67.60732 
C 240.765351 68.1699 241.528481 68.485999 242.324091 68.485999 
z
" clip-path="url(#peea22aefdc)" style="fill: #808080; fill-opacity: 0.5; stroke: #ffffff; stroke-opacity: 0.5; stroke-width: 0.48"/>
    <path d="M 241.317118 106.286153 
C 242.112727 106.286153 242.875857 105.970054 243.438438 105.407473 
C 244.001019 104.844893 244.317118 104.081762 244.317118 103.286153 
C 244.317118 102.490544 244.001019 101.727413 243.438438 101.164833 
C 242.875857 100.602252 242.112727 100.286153 241.317118 100.286153 
C 240.521508 100.286153 239.758378 100.602252 239.195797 101.164833 
C 238.633217 101.727413 238.317118 102.490544 238.317118 103.286153 
C 238.317118 104.081762 238.633217 104.844893 239.195797 105.407473 
C 239.758378 105.970054 240.521508 106.286153 241.317118 106.286153 
z
" clip-path="url(#peea22aefdc)" style="fill: #808080; fill-opacity: 0.5; stroke: #ffffff; stroke-opacity: 0.5; stroke-width: 0.48"/>
    <path d="M 240.533474 87.932323 
C 241.329083 87.932323 242.092213 87.616224 242.654794 87.053644 
C 243.217375 86.491063 243.533474 85.727933 243.533474 84.932323 
C 243.533474 84.136714 243.217375 83.373584 242.654794 82.811003 
C 242.092213 82.248422 241.329083 81.932323 240.533474 81.932323 
C 239.737864 81.932323 238.974734 82.248422 238.412153 82.811003 
C 237.849573 83.373584 237.533474 84.136714 237.533474 84.932323 
C 237.533474 85.727933 237.849573 86.491063 238.412153 87.053644 
C 238.974734 87.616224 239.737864 87.932323 240.533474 87.932323 
z
" clip-path="url(#peea22aefdc)" style="fill: #808080; fill-opacity: 0.5; stroke: #ffffff; stroke-opacity: 0.5; stroke-width: 0.48"/>
    <path d="M 241.683524 106.140562 
C 242.479133 106.140562 243.242263 105.824463 243.804844 105.261882 
C 244.367425 104.699301 244.683524 103.936171 244.683524 103.140562 
C 244.683524 102.344952 244.367425 101.581822 243.804844 101.019241 
C 243.242263 100.456661 242.479133 100.140562 241.683524 100.140562 
C 240.887914 100.140562 240.124784 100.456661 239.562203 101.019241 
C 238.999623 101.581822 238.683524 102.344952 238.683524 103.140562 
C 238.683524 103.936171 238.999623 104.699301 239.562203 105.261882 
C 240.124784 105.824463 240.887914 106.140562 241.683524 106.140562 
z
" clip-path="url(#peea22aefdc)" style="fill: #808080; fill-opacity: 0.5; stroke: #ffffff; stroke-opacity: 0.5; stroke-width: 0.48"/>
    <path d="M 241.189312 92.692813 
C 241.984921 92.692813 242.748051 92.376714 243.310632 91.814133 
C 243.873213 91.251553 244.189312 90.488422 244.189312 89.692813 
C 244.189312 88.897204 243.873213 88.134073 243.310632 87.571493 
C 242.748051 87.008912 241.984921 86.692813 241.189312 86.692813 
C 240.393702 86.692813 239.630572 87.008912 239.067991 87.571493 
C 238.505411 88.134073 238.189312 88.897204 238.189312 89.692813 
C 238.189312 90.488422 238.505411 91.251553 239.067991 91.814133 
C 239.630572 92.376714 240.393702 92.692813 241.189312 92.692813 
z
" clip-path="url(#peea22aefdc)" style="fill: #808080; fill-opacity: 0.5; stroke: #ffffff; stroke-opacity: 0.5; stroke-width: 0.48"/>
    <path d="M 239.784469 93.289993 
C 240.580078 93.289993 241.343209 92.973894 241.90579 92.411314 
C 242.46837 91.848733 242.784469 91.085603 242.784469 90.289993 
C 242.784469 89.494384 242.46837 88.731254 241.90579 88.168673 
C 241.343209 87.606092 240.580078 87.289993 239.784469 87.289993 
C 238.98886 87.289993 238.22573 87.606092 237.663149 88.168673 
C 237.100568 88.731254 236.784469 89.494384 236.784469 90.289993 
C 236.784469 91.085603 237.100568 91.848733 237.663149 92.411314 
C 238.22573 92.973894 238.98886 93.289993 239.784469 93.289993 
z
" clip-path="url(#peea22aefdc)" style="fill: #808080; fill-opacity: 0.5; stroke: #ffffff; stroke-opacity: 0.5; stroke-width: 0.48"/>
    <path d="M 232.965658 76.507888 
C 233.761267 76.507888 234.524398 76.191789 235.086978 75.629209 
C 235.649559 75.066628 235.965658 74.303498 235.965658 73.507888 
C 235.965658 72.712279 235.649559 71.949149 235.086978 71.386568 
C 234.524398 70.823987 233.761267 70.507888 232.965658 70.507888 
C 232.170049 70.507888 231.406918 70.823987 230.844338 71.386568 
C 230.281757 71.949149 229.965658 72.712279 229.965658 73.507888 
C 229.965658 74.303498 230.281757 75.066628 230.844338 75.629209 
C 231.406918 76.191789 232.170049 76.507888 232.965658 76.507888 
z
" clip-path="url(#peea22aefdc)" style="fill: #808080; fill-opacity: 0.5; stroke: #ffffff; stroke-opacity: 0.5; stroke-width: 0.48"/>
    <path d="M 239.688133 88.937137 
C 240.483742 88.937137 241.246872 88.621038 241.809453 88.058457 
C 242.372034 87.495876 242.688133 86.732746 242.688133 85.937137 
C 242.688133 85.141527 242.372034 84.378397 241.809453 83.815816 
C 241.246872 83.253236 240.483742 82.937137 239.688133 82.937137 
C 238.892523 82.937137 238.129393 83.253236 237.566812 83.815816 
C 237.004232 84.378397 236.688133 85.141527 236.688133 85.937137 
C 236.688133 86.732746 237.004232 87.495876 237.566812 88.058457 
C 238.129393 88.621038 238.892523 88.937137 239.688133 88.937137 
z
" clip-path="url(#peea22aefdc)" style="fill: #808080; fill-opacity: 0.5; stroke: #ffffff; stroke-opacity: 0.5; stroke-width: 0.48"/>
    <path d="M 241.165846 65.430985 
C 241.961455 65.430985 242.724585 65.114887 243.287166 64.552306 
C 243.849747 63.989725 244.165846 63.226595 244.165846 62.430985 
C 244.165846 61.635376 243.849747 60.872246 243.287166 60.309665 
C 242.724585 59.747084 241.961455 59.430985 241.165846 59.430985 
C 240.370236 59.430985 239.607106 59.747084 239.044525 60.309665 
C 238.481945 60.872246 238.165846 61.635376 238.165846 62.430985 
C 238.165846 63.226595 238.481945 63.989725 239.044525 64.552306 
C 239.607106 65.114887 240.370236 65.430985 241.165846 65.430985 
z
" clip-path="url(#peea22aefdc)" style="fill: #808080; fill-opacity: 0.5; stroke: #ffffff; stroke-opacity: 0.5; stroke-width: 0.48"/>
    <path d="M 240.453311 70.019635 
C 241.248921 70.019635 242.012051 69.703536 242.574632 69.140956 
C 243.137213 68.578375 243.453311 67.815245 243.453311 67.019635 
C 243.453311 66.224026 243.137213 65.460896 242.574632 64.898315 
C 242.012051 64.335734 241.248921 64.019635 240.453311 64.019635 
C 239.657702 64.019635 238.894572 64.335734 238.331991 64.898315 
C 237.76941 65.460896 237.453311 66.224026 237.453311 67.019635 
C 237.453311 67.815245 237.76941 68.578375 238.331991 69.140956 
C 238.894572 69.703536 239.657702 70.019635 240.453311 70.019635 
z
" clip-path="url(#peea22aefdc)" style="fill: #808080; fill-opacity: 0.5; stroke: #ffffff; stroke-opacity: 0.5; stroke-width: 0.48"/>
    <path d="M 237.094898 125.986594 
C 237.890507 125.986594 238.653637 125.670495 239.216218 125.107914 
C 239.778799 124.545334 240.094898 123.782203 240.094898 122.986594 
C 240.094898 122.190985 239.778799 121.427854 239.216218 120.865274 
C 238.653637 120.302693 237.890507 119.986594 237.094898 119.986594 
C 236.299288 119.986594 235.536158 120.302693 234.973577 120.865274 
C 234.410997 121.427854 234.094898 122.190985 234.094898 122.986594 
C 234.094898 123.782203 234.410997 124.545334 234.973577 125.107914 
C 235.536158 125.670495 236.299288 125.986594 237.094898 125.986594 
z
" clip-path="url(#peea22aefdc)" style="fill: #808080; fill-opacity: 0.5; stroke: #ffffff; stroke-opacity: 0.5; stroke-width: 0.48"/>
    <path d="M 214.477916 221.784486 
C 215.273525 221.784486 216.036656 221.468387 216.599236 220.905807 
C 217.161817 220.343226 217.477916 219.580096 217.477916 218.784486 
C 217.477916 217.988877 217.161817 217.225747 216.599236 216.663166 
C 216.036656 216.100585 215.273525 215.784486 214.477916 215.784486 
C 213.682307 215.784486 212.919176 216.100585 212.356596 216.663166 
C 211.794015 217.225747 211.477916 217.988877 211.477916 218.784486 
C 211.477916 219.580096 211.794015 220.343226 212.356596 220.905807 
C 212.919176 221.468387 213.682307 221.784486 214.477916 221.784486 
z
" clip-path="url(#peea22aefdc)" style="fill: #ff0000; fill-opacity: 0.5; stroke: #ffffff; stroke-opacity: 0.5; stroke-width: 0.48"/>
    <path d="M 253.642002 204.608212 
C 254.437611 204.608212 255.200741 204.292113 255.763322 203.729532 
C 256.325903 203.166951 256.642002 202.403821 256.642002 201.608212 
C 256.642002 200.812602 256.325903 200.049472 255.763322 199.486891 
C 255.200741 198.924311 254.437611 198.608212 253.642002 198.608212 
C 252.846393 198.608212 252.083262 198.924311 251.520682 199.486891 
C 250.958101 200.049472 250.642002 200.812602 250.642002 201.608212 
C 250.642002 202.403821 250.958101 203.166951 251.520682 203.729532 
C 252.083262 204.292113 252.846393 204.608212 253.642002 204.608212 
z
" clip-path="url(#peea22aefdc)" style="fill: #ff0000; fill-opacity: 0.5; stroke: #ffffff; stroke-opacity: 0.5; stroke-width: 0.48"/>
    <path d="M 226.47817 222.805148 
C 227.27378 222.805148 228.03691 222.489049 228.599491 221.926468 
C 229.162071 221.363888 229.47817 220.600757 229.47817 219.805148 
C 229.47817 219.009539 229.162071 218.246408 228.599491 217.683828 
C 228.03691 217.121247 227.27378 216.805148 226.47817 216.805148 
C 225.682561 216.805148 224.919431 217.121247 224.35685 217.683828 
C 223.794269 218.246408 223.47817 219.009539 223.47817 219.805148 
C 223.47817 220.600757 223.794269 221.363888 224.35685 221.926468 
C 224.919431 222.489049 225.682561 222.805148 226.47817 222.805148 
z
" clip-path="url(#peea22aefdc)" style="fill: #ff0000; fill-opacity: 0.5; stroke: #ffffff; stroke-opacity: 0.5; stroke-width: 0.48"/>
    <path d="M 247.026781 192.38225 
C 247.82239 192.38225 248.58552 192.066151 249.148101 191.50357 
C 249.710682 190.94099 250.026781 190.177859 250.026781 189.38225 
C 250.026781 188.586641 249.710682 187.82351 249.148101 187.26093 
C 248.58552 186.698349 247.82239 186.38225 247.026781 186.38225 
C 246.231172 186.38225 245.468041 186.698349 244.905461 187.26093 
C 244.34288 187.82351 244.026781 188.586641 244.026781 189.38225 
C 244.026781 190.177859 244.34288 190.94099 244.905461 191.50357 
C 245.468041 192.066151 246.231172 192.38225 247.026781 192.38225 
z
" clip-path="url(#peea22aefdc)" style="fill: #ff0000; fill-opacity: 0.5; stroke: #ffffff; stroke-opacity: 0.5; stroke-width: 0.48"/>
    <path d="M 247.565954 184.150431 
C 248.361564 184.150431 249.124694 183.834332 249.687275 183.271751 
C 250.249855 182.709171 250.565954 181.94604 250.565954 181.150431 
C 250.565954 180.354822 250.249855 179.591691 249.687275 179.029111 
C 249.124694 178.46653 248.361564 178.150431 247.565954 178.150431 
C 246.770345 178.150431 246.007215 178.46653 245.444634 179.029111 
C 244.882053 179.591691 244.565954 180.354822 244.565954 181.150431 
C 244.565954 181.94604 244.882053 182.709171 245.444634 183.271751 
C 246.007215 183.834332 246.770345 184.150431 247.565954 184.150431 
z
" clip-path="url(#peea22aefdc)" style="fill: #ff0000; fill-opacity: 0.5; stroke: #ffffff; stroke-opacity: 0.5; stroke-width: 0.48"/>
    <path d="M 239.715359 236.337048 
C 240.510968 236.337048 241.274098 236.020949 241.836679 235.458368 
C 242.39926 234.895787 242.715359 234.132657 242.715359 233.337048 
C 242.715359 232.541438 242.39926 231.778308 241.836679 231.215727 
C 241.274098 230.653147 240.510968 230.337048 239.715359 230.337048 
C 238.919749 230.337048 238.156619 230.653147 237.594038 231.215727 
C 237.031458 231.778308 236.715359 232.541438 236.715359 233.337048 
C 236.715359 234.132657 237.031458 234.895787 237.594038 235.458368 
C 238.156619 236.020949 238.919749 236.337048 239.715359 236.337048 
z
" clip-path="url(#peea22aefdc)" style="fill: #ff0000; fill-opacity: 0.5; stroke: #ffffff; stroke-opacity: 0.5; stroke-width: 0.48"/>
    <path d="M 225.175938 252.925569 
C 225.971547 252.925569 226.734677 252.60947 227.297258 252.046889 
C 227.859839 251.484308 228.175938 250.721178 228.175938 249.925569 
C 228.175938 249.129959 227.859839 248.366829 227.297258 247.804248 
C 226.734677 247.241668 225.971547 246.925569 225.175938 246.925569 
C 224.380328 246.925569 223.617198 247.241668 223.054617 247.804248 
C 222.492037 248.366829 222.175938 249.129959 222.175938 249.925569 
C 222.175938 250.721178 222.492037 251.484308 223.054617 252.046889 
C 223.617198 252.60947 224.380328 252.925569 225.175938 252.925569 
z
" clip-path="url(#peea22aefdc)" style="fill: #ff0000; fill-opacity: 0.5; stroke: #ffffff; stroke-opacity: 0.5; stroke-width: 0.48"/>
    <path d="M 243.235118 238.390877 
C 244.030727 238.390877 244.793857 238.074778 245.356438 237.512197 
C 245.919019 236.949616 246.235118 236.186486 246.235118 235.390877 
C 246.235118 234.595267 245.919019 233.832137 245.356438 233.269556 
C 244.793857 232.706976 244.030727 232.390877 243.235118 232.390877 
C 242.439508 232.390877 241.676378 232.706976 241.113797 233.269556 
C 240.551217 233.832137 240.235118 234.595267 240.235118 235.390877 
C 240.235118 236.186486 240.551217 236.949616 241.113797 237.512197 
C 241.676378 238.074778 242.439508 238.390877 243.235118 238.390877 
z
" clip-path="url(#peea22aefdc)" style="fill: #ff0000; fill-opacity: 0.5; stroke: #ffffff; stroke-opacity: 0.5; stroke-width: 0.48"/>
    <path d="M 249.085553 196.669764 
C 249.881163 196.669764 250.644293 196.353665 251.206874 195.791085 
C 251.769455 195.228504 252.085553 194.465374 252.085553 193.669764 
C 252.085553 192.874155 251.769455 192.111025 251.206874 191.548444 
C 250.644293 190.985863 249.881163 190.669764 249.085553 190.669764 
C 248.289944 190.669764 247.526814 190.985863 246.964233 191.548444 
C 246.401652 192.111025 246.085553 192.874155 246.085553 193.669764 
C 246.085553 194.465374 246.401652 195.228504 246.964233 195.791085 
C 247.526814 196.353665 248.289944 196.669764 249.085553 196.669764 
z
" clip-path="url(#peea22aefdc)" style="fill: #ff0000; fill-opacity: 0.5; stroke: #ffffff; stroke-opacity: 0.5; stroke-width: 0.48"/>
    <path d="M 253.225413 224.357094 
C 254.021023 224.357094 254.784153 224.040995 255.346734 223.478414 
C 255.909314 222.915833 256.225413 222.152703 256.225413 221.357094 
C 256.225413 220.561484 255.909314 219.798354 255.346734 219.235773 
C 254.784153 218.673193 254.021023 218.357094 253.225413 218.357094 
C 252.429804 218.357094 251.666674 218.673193 251.104093 219.235773 
C 250.541512 219.798354 250.225413 220.561484 250.225413 221.357094 
C 250.225413 222.152703 250.541512 222.915833 251.104093 223.478414 
C 251.666674 224.040995 252.429804 224.357094 253.225413 224.357094 
z
" clip-path="url(#peea22aefdc)" style="fill: #ff0000; fill-opacity: 0.5; stroke: #ffffff; stroke-opacity: 0.5; stroke-width: 0.48"/>
    <path d="M 231.808543 177.495792 
C 232.604153 177.495792 233.367283 177.179693 233.929864 176.617112 
C 234.492444 176.054531 234.808543 175.291401 234.808543 174.495792 
C 234.808543 173.700183 234.492444 172.937052 233.929864 172.374472 
C 233.367283 171.811891 232.604153 171.495792 231.808543 171.495792 
C 231.012934 171.495792 230.249804 171.811891 229.687223 172.374472 
C 229.124642 172.937052 228.808543 173.700183 228.808543 174.495792 
C 228.808543 175.291401 229.124642 176.054531 229.687223 176.617112 
C 230.249804 177.179693 231.012934 177.495792 231.808543 177.495792 
z
" clip-path="url(#peea22aefdc)" style="fill: #ff0000; fill-opacity: 0.5; stroke: #ffffff; stroke-opacity: 0.5; stroke-width: 0.48"/>
    <path d="M 247.425919 171.27448 
C 248.221528 171.27448 248.984659 170.958381 249.547239 170.3958 
C 250.10982 169.833219 250.425919 169.070089 250.425919 168.27448 
C 250.425919 167.47887 250.10982 166.71574 249.547239 166.153159 
C 248.984659 165.590579 248.221528 165.27448 247.425919 165.27448 
C 246.63031 165.27448 245.867179 165.590579 245.304599 166.153159 
C 244.742018 166.71574 244.425919 167.47887 244.425919 168.27448 
C 244.425919 169.070089 244.742018 169.833219 245.304599 170.3958 
C 245.867179 170.958381 246.63031 171.27448 247.425919 171.27448 
z
" clip-path="url(#peea22aefdc)" style="fill: #ff0000; fill-opacity: 0.5; stroke: #ffffff; stroke-opacity: 0.5; stroke-width: 0.48"/>
   </g>
   <g id="matplotlib.axis_3">
    <g id="xtick_3">
     <g id="line2d_6">
      <g>
       <use xlink:href="#mc573c263fd" x="184.082611" y="264.328" style="stroke: #000000; stroke-width: 0.8"/>
      </g>
     </g>
     <g id="text_11">
      <!-- $\mathdefault{2^{0}}$ -->
      <g transform="translate(178.482611 278.926437)">
       <text>
        <tspan style="font: 10px 'DejaVu Sans'" x="0" y="-0.9765625">2</tspan>
        <tspan style="font: 7px 'DejaVu Sans'" x="6.458008" y="-4.8046875">0</tspan>
       </text>
      </g>
     </g>
    </g>
    <g id="xtick_4">
     <g id="line2d_7">
      <g>
       <use xlink:href="#mc573c263fd" x="239.663452" y="264.328" style="stroke: #000000; stroke-width: 0.8"/>
      </g>
     </g>
     <g id="text_12">
      <!-- $\mathdefault{2^{1}}$ -->
      <g transform="translate(234.063452 278.926437)">
       <text>
        <tspan style="font: 10px 'DejaVu Sans'" x="0" y="-0.06406250000000036">2</tspan>
        <tspan style="font: 7px 'DejaVu Sans'" x="6.458008" y="-3.8921875000000004">1</tspan>
       </text>
      </g>
     </g>
    </g>
    <g id="text_13">
     <text style="font: 10px 'DejaVu Sans', 'Bitstream Vera Sans', 'Computer Modern Sans Serif', 'Lucida Grande', 'Verdana', 'Geneva', 'Lucid', 'Arial', 'Helvetica', 'Avant Garde', sans-serif; text-anchor: middle" x="208.160016" y="292.604562" transform="rotate(-0 208.160016 292.604562)">solid medium</text>
    </g>
   </g>
   <g id="matplotlib.axis_4">
    <g id="ytick_4">
     <g id="line2d_8">
      <g>
       <use xlink:href="#m0424ff5152" x="158.121012" y="208.47541" style="stroke: #000000; stroke-width: 0.8"/>
      </g>
     </g>
    </g>
    <g id="ytick_5">
     <g id="line2d_9">
      <g>
       <use xlink:href="#m0424ff5152" x="158.121012" y="116.597705" style="stroke: #000000; stroke-width: 0.8"/>
      </g>
     </g>
    </g>
    <g id="ytick_6">
     <g id="line2d_10">
      <g>
       <use xlink:href="#m0424ff5152" x="158.121012" y="24.72" style="stroke: #000000; stroke-width: 0.8"/>
      </g>
     </g>
    </g>
   </g>
   <g id="patch_6">
    <path d="M 158.121012 264.328 
L 158.121012 24.72 
" style="fill: none; stroke: #000000; stroke-width: 0.8; stroke-linejoin: miter; stroke-linecap: square"/>
   </g>
   <g id="patch_7">
    <path d="M 158.121012 264.328 
L 258.19902 264.328 
" style="fill: none; stroke: #000000; stroke-width: 0.8; stroke-linejoin: miter; stroke-linecap: square"/>
   </g>
   <g id="text_14">
    <text style="font: 10px 'DejaVu Sans', 'Bitstream Vera Sans', 'Computer Modern Sans Serif', 'Lucida Grande', 'Verdana', 'Geneva', 'Lucid', 'Arial', 'Helvetica', 'Avant Garde', sans-serif; text-anchor: middle" x="184.082611" y="203.276646" transform="rotate(-0 184.082611 203.276646)">WT</text>
   </g>
   <g id="text_15">
    <text style="font: 10px 'DejaVu Sans', 'Bitstream Vera Sans', 'Computer Modern Sans Serif', 'Lucida Grande', 'Verdana', 'Geneva', 'Lucid', 'Arial', 'Helvetica', 'Avant Garde', sans-serif" transform="translate(166.189577 31.221975)">S. rho 0.18</text>
    <text style="font: 10px 'DejaVu Sans', 'Bitstream Vera Sans', 'Computer Modern Sans Serif', 'Lucida Grande', 'Verdana', 'Geneva', 'Lucid', 'Arial', 'Helvetica', 'Avant Garde', sans-serif" transform="translate(166.189577 42.419788)">p-val 2.40e-01</text>
   </g>
   <g id="text_16">
    <text style="font: 10px 'DejaVu Sans', 'Bitstream Vera Sans', 'Computer Modern Sans Serif', 'Lucida Grande', 'Verdana', 'Geneva', 'Lucid', 'Arial', 'Helvetica', 'Avant Garde', sans-serif; text-anchor: middle" x="208.160016" y="18.72" transform="rotate(-0 208.160016 18.72)">NC-02</text>
   </g>
  </g>
  <g id="legend_1">
   <g id="patch_8">
    <path d="M 27.69388 204.85625 
L 78.89388 204.85625 
Q 80.89388 204.85625 80.89388 202.85625 
L 80.89388 161.8 
Q 80.89388 159.8 78.89388 159.8 
L 27.69388 159.8 
Q 25.69388 159.8 25.69388 161.8 
L 25.69388 202.85625 
Q 25.69388 204.85625 27.69388 204.85625 
z
" style="fill: #ffffff; opacity: 0.8; stroke: #cccccc; stroke-linejoin: miter"/>
   </g>
   <g id="PathCollection_8">
    <defs>
     <path id="m9ef238a596" d="M 0 2.25 
C 0.596707 2.25 1.169055 2.012926 1.59099 1.59099 
C 2.012926 1.169055 2.25 0.596707 2.25 0 
C 2.25 -0.596707 2.012926 -1.169055 1.59099 -1.59099 
C 1.169055 -2.012926 0.596707 -2.25 0 -2.25 
C -0.596707 -2.25 -1.169055 -2.012926 -1.59099 -1.59099 
C -2.012926 -1.169055 -2.25 -0.596707 -2.25 0 
C -2.25 0.596707 -2.012926 1.169055 -1.59099 1.59099 
C -1.169055 2.012926 -0.596707 2.25 0 2.25 
z
" style="stroke: #808080"/>
    </defs>
    <g>
     <use xlink:href="#m9ef238a596" x="38.69388" y="167.773438" style="fill: #808080; stroke: #808080"/>
    </g>
   </g>
   <g id="text_17">
    <!-- $\it{rho}$ -->
    <g transform="translate(49.69388 170.398438)">
     <text>
      <tspan style="font: oblique 10px 'DejaVu Sans'" x="0 4.111328 10.449219" y="-0.40625">rho</tspan>
      <tspan style="font: 10px 'DejaVu Sans'" x="16.567383" y="-0.40625"></tspan>
     </text>
    </g>
   </g>
   <g id="PathCollection_9">
    <defs>
     <path id="m51cde8a650" d="M 0 2.25 
C 0.596707 2.25 1.169055 2.012926 1.59099 1.59099 
C 2.012926 1.169055 2.25 0.596707 2.25 0 
C 2.25 -0.596707 2.012926 -1.169055 1.59099 -1.59099 
C 1.169055 -2.012926 0.596707 -2.25 0 -2.25 
C -0.596707 -2.25 -1.169055 -2.012926 -1.59099 -1.59099 
C -2.012926 -1.169055 -2.25 -0.596707 -2.25 0 
C -2.25 0.596707 -2.012926 1.169055 -1.59099 1.59099 
C -1.169055 2.012926 -0.596707 2.25 0 2.25 
z
" style="stroke: #ff0000"/>
    </defs>
    <g>
     <use xlink:href="#m51cde8a650" x="38.69388" y="182.451562" style="fill: #ff0000; stroke: #ff0000"/>
    </g>
   </g>
   <g id="text_18">
    <!-- $\it{rho}$ -->
    <g transform="translate(49.69388 185.076562)">
     <text>
      <tspan style="font: oblique 10px 'DejaVu Sans'" x="0 4.111328 10.449219" y="-0.40625">rho</tspan>
      <tspan style="font: 10px 'DejaVu Sans'" x="16.567383" y="-0.40625"></tspan>
     </text>
    </g>
   </g>
   <g id="PathCollection_10">
    <defs>
     <path id="ma4d123bfad" d="M 0 3.181981 
L 3.181981 0 
L 0 -3.181981 
L -3.181981 0 
z
" style="stroke: #333333"/>
    </defs>
    <g>
     <use xlink:href="#ma4d123bfad" x="38.69388" y="197.13125" style="fill: #333333; stroke: #333333"/>
    </g>
   </g>
   <g id="text_19">
    <!-- $\it{fcy1}$ -->
    <g transform="translate(49.69388 199.75625)">
     <text>
      <tspan style="font: oblique 10px 'DejaVu Sans'" x="0 3.520508 9.018555" y="-0.40625">fcy</tspan>
      <tspan style="font: 10px 'DejaVu Sans'" x="14.936523 21.298828" y="-0.40625">1</tspan>
     </text>
    </g>
   </g>
  </g>
 </g>
 <defs>
  <clipPath id="pb09e106b95">
   <rect x="43.743005" y="24.72" width="100.078008" height="239.608"/>
  </clipPath>
  <clipPath id="peea22aefdc">
   <rect x="158.121012" y="24.72" width="100.078008" height="239.608"/>
  </clipPath>
 </defs>
</svg>
